<svg xmlns="http://www.w3.org/2000/svg" viewBox="0 0 1200 780" role="img" aria-label="Taut logo: six colored strands woven into a ring above the wordmark TAUT">
  <!-- Generated by assets/gen_taut_logo.py - compute the weave, do not hand-tune it. -->
  <rect width="1200" height="780" fill="#ffffff"/>
  <g stroke-linecap="round" fill="none">
  <ellipse cx="698" cy="300" rx="116" ry="45" transform="rotate(90 698 300)" stroke="#ffffff" stroke-width="42"/>
  <ellipse cx="698" cy="300" rx="116" ry="45" transform="rotate(90 698 300)" stroke="#E23E57" stroke-width="30"/>
  <ellipse cx="649" cy="384.87" rx="116" ry="45" transform="rotate(150 649 384.87)" stroke="#ffffff" stroke-width="42"/>
  <ellipse cx="649" cy="384.87" rx="116" ry="45" transform="rotate(150 649 384.87)" stroke="#F0862B" stroke-width="30"/>
  <ellipse cx="551" cy="384.87" rx="116" ry="45" transform="rotate(210 551 384.87)" stroke="#ffffff" stroke-width="42"/>
  <ellipse cx="551" cy="384.87" rx="116" ry="45" transform="rotate(210 551 384.87)" stroke="#E8B92E" stroke-width="30"/>
  <ellipse cx="502" cy="300" rx="116" ry="45" transform="rotate(270 502 300)" stroke="#ffffff" stroke-width="42"/>
  <ellipse cx="502" cy="300" rx="116" ry="45" transform="rotate(270 502 300)" stroke="#33A65E" stroke-width="30"/>
  <ellipse cx="551" cy="215.13" rx="116" ry="45" transform="rotate(330 551 215.13)" stroke="#ffffff" stroke-width="42"/>
  <ellipse cx="551" cy="215.13" rx="116" ry="45" transform="rotate(330 551 215.13)" stroke="#2F7FD0" stroke-width="30"/>
  <ellipse cx="649" cy="215.13" rx="116" ry="45" transform="rotate(390 649 215.13)" stroke="#ffffff" stroke-width="42"/>
  <ellipse cx="649" cy="215.13" rx="116" ry="45" transform="rotate(390 649 215.13)" stroke="#8A4FBE" stroke-width="30"/>
  <!-- over-segments: computed crossing windows -->
  <ellipse cx="698" cy="300" rx="116" ry="45" transform="rotate(90 698 300)" fill="none" stroke="#ffffff" stroke-width="42" stroke-linecap="round" pathLength="100" stroke-dasharray="13.57 86.43" stroke-dashoffset="-12.38"/>
  <ellipse cx="698" cy="300" rx="116" ry="45" transform="rotate(90 698 300)" fill="none" stroke="#E23E57" stroke-width="30" stroke-linecap="round" pathLength="100" stroke-dasharray="13.57 86.43" stroke-dashoffset="-12.38"/>
  <ellipse cx="698" cy="300" rx="116" ry="45" transform="rotate(90 698 300)" fill="none" stroke="#ffffff" stroke-width="42" stroke-linecap="round" pathLength="100" stroke-dasharray="13.57 86.43" stroke-dashoffset="-64.48"/>
  <ellipse cx="698" cy="300" rx="116" ry="45" transform="rotate(90 698 300)" fill="none" stroke="#E23E57" stroke-width="30" stroke-linecap="round" pathLength="100" stroke-dasharray="13.57 86.43" stroke-dashoffset="-64.48"/>
  <ellipse cx="649" cy="384.87" rx="116" ry="45" transform="rotate(150 649 384.87)" fill="none" stroke="#ffffff" stroke-width="42" stroke-linecap="round" pathLength="100" stroke-dasharray="13.57 86.43" stroke-dashoffset="-64.48"/>
  <ellipse cx="649" cy="384.87" rx="116" ry="45" transform="rotate(150 649 384.87)" fill="none" stroke="#F0862B" stroke-width="30" stroke-linecap="round" pathLength="100" stroke-dasharray="13.57 86.43" stroke-dashoffset="-64.48"/>
  <ellipse cx="649" cy="384.87" rx="116" ry="45" transform="rotate(150 649 384.87)" fill="none" stroke="#ffffff" stroke-width="42" stroke-linecap="round" pathLength="100" stroke-dasharray="13.57 86.43" stroke-dashoffset="-12.12"/>
  <ellipse cx="649" cy="384.87" rx="116" ry="45" transform="rotate(150 649 384.87)" fill="none" stroke="#F0862B" stroke-width="30" stroke-linecap="round" pathLength="100" stroke-dasharray="13.57 86.43" stroke-dashoffset="-12.12"/>
  <ellipse cx="551" cy="384.87" rx="116" ry="45" transform="rotate(210 551 384.87)" fill="none" stroke="#ffffff" stroke-width="42" stroke-linecap="round" pathLength="100" stroke-dasharray="13.57 86.43" stroke-dashoffset="-64.48"/>
  <ellipse cx="551" cy="384.87" rx="116" ry="45" transform="rotate(210 551 384.87)" fill="none" stroke="#E8B92E" stroke-width="30" stroke-linecap="round" pathLength="100" stroke-dasharray="13.57 86.43" stroke-dashoffset="-64.48"/>
  <ellipse cx="551" cy="384.87" rx="116" ry="45" transform="rotate(210 551 384.87)" fill="none" stroke="#ffffff" stroke-width="42" stroke-linecap="round" pathLength="100" stroke-dasharray="13.57 86.43" stroke-dashoffset="-12.38"/>
  <ellipse cx="551" cy="384.87" rx="116" ry="45" transform="rotate(210 551 384.87)" fill="none" stroke="#E8B92E" stroke-width="30" stroke-linecap="round" pathLength="100" stroke-dasharray="13.57 86.43" stroke-dashoffset="-12.38"/>
  <ellipse cx="502" cy="300" rx="116" ry="45" transform="rotate(270 502 300)" fill="none" stroke="#ffffff" stroke-width="42" stroke-linecap="round" pathLength="100" stroke-dasharray="13.57 86.43" stroke-dashoffset="-64.48"/>
  <ellipse cx="502" cy="300" rx="116" ry="45" transform="rotate(270 502 300)" fill="none" stroke="#33A65E" stroke-width="30" stroke-linecap="round" pathLength="100" stroke-dasharray="13.57 86.43" stroke-dashoffset="-64.48"/>
  <ellipse cx="502" cy="300" rx="116" ry="45" transform="rotate(270 502 300)" fill="none" stroke="#ffffff" stroke-width="42" stroke-linecap="round" pathLength="100" stroke-dasharray="13.57 86.43" stroke-dashoffset="-12.38"/>
  <ellipse cx="502" cy="300" rx="116" ry="45" transform="rotate(270 502 300)" fill="none" stroke="#33A65E" stroke-width="30" stroke-linecap="round" pathLength="100" stroke-dasharray="13.57 86.43" stroke-dashoffset="-12.38"/>
  <ellipse cx="551" cy="215.13" rx="116" ry="45" transform="rotate(330 551 215.13)" fill="none" stroke="#ffffff" stroke-width="42" stroke-linecap="round" pathLength="100" stroke-dasharray="13.57 86.43" stroke-dashoffset="-64.48"/>
  <ellipse cx="551" cy="215.13" rx="116" ry="45" transform="rotate(330 551 215.13)" fill="none" stroke="#2F7FD0" stroke-width="30" stroke-linecap="round" pathLength="100" stroke-dasharray="13.57 86.43" stroke-dashoffset="-64.48"/>
  <ellipse cx="551" cy="215.13" rx="116" ry="45" transform="rotate(330 551 215.13)" fill="none" stroke="#ffffff" stroke-width="42" stroke-linecap="round" pathLength="100" stroke-dasharray="13.57 86.43" stroke-dashoffset="-12.12"/>
  <ellipse cx="551" cy="215.13" rx="116" ry="45" transform="rotate(330 551 215.13)" fill="none" stroke="#2F7FD0" stroke-width="30" stroke-linecap="round" pathLength="100" stroke-dasharray="13.57 86.43" stroke-dashoffset="-12.12"/>
  <ellipse cx="649" cy="215.13" rx="116" ry="45" transform="rotate(390 649 215.13)" fill="none" stroke="#ffffff" stroke-width="42" stroke-linecap="round" pathLength="100" stroke-dasharray="13.57 86.43" stroke-dashoffset="-64.48"/>
  <ellipse cx="649" cy="215.13" rx="116" ry="45" transform="rotate(390 649 215.13)" fill="none" stroke="#8A4FBE" stroke-width="30" stroke-linecap="round" pathLength="100" stroke-dasharray="13.57 86.43" stroke-dashoffset="-64.48"/>
  <ellipse cx="649" cy="215.13" rx="116" ry="45" transform="rotate(390 649 215.13)" fill="none" stroke="#ffffff" stroke-width="42" stroke-linecap="round" pathLength="100" stroke-dasharray="13.57 86.43" stroke-dashoffset="-12.38"/>
  <ellipse cx="649" cy="215.13" rx="116" ry="45" transform="rotate(390 649 215.13)" fill="none" stroke="#8A4FBE" stroke-width="30" stroke-linecap="round" pathLength="100" stroke-dasharray="13.57 86.43" stroke-dashoffset="-12.38"/>
  </g>
  <g fill="#39414B">
    <path d="M340 560 h112 v30 h-41 v90 h-30 v-90 h-41 Z"/>
    <path fill-rule="evenodd" d="M484 680 L522 560 L558 560 L596 680 L566 680 L558.5 656 L521.5 656 L514 680 Z M529 630 L551 630 L540 593 Z"/>
    <path d="M628 560 h30 v82 q0 14 22 14 q22 0 22 -14 v-82 h30 v84 q0 40 -52 40 q-52 0 -52 -40 Z"/>
    <path d="M760 560 h112 v30 h-41 v90 h-30 v-90 h-41 Z"/>
  </g>
</svg>
